Coordinates
version=1
nRows=16
nColumns=24
inDegrees=yes

Units are S.I. units (second, meters, Newtons, ...)
If the header above contains a line with 'inDegrees', this indicates whether rotational values are in degrees (yes) or radians (no).

endheader
time	pelvis_tilt	pelvis_list	pelvis_rotation	pelvis_tx	pelvis_ty	pelvis_tz	hip_flexion_r	hip_adduction_r	hip_rotation_r	knee_angle_r	ankle_angle_r	subtalar_angle_r	mtp_angle_r	hip_flexion_l	hip_adduction_l	hip_rotation_l	knee_angle_l	ankle_angle_l	subtalar_angle_l	mtp_angle_l	lumbar_extension	lumbar_bending	lumbar_rotation
0.200000	10.177607	2.591419	-178.784009	0.227072	0.850871	-1.205423	15.204764	-9.251334	-34.017915	-9.713239	-0.237288	13.227466	0.000000	15.854345	-14.652258	-29.751814	-9.137889	0.252852	19.223242	0.000000	3.951931	2.184227	-2.875911
0.205000	10.179575	2.588726	-178.791502	0.227075	0.850844	-1.205454	15.207633	-9.250431	-34.012749	-9.713546	-0.241500	13.231357	0.000000	15.853071	-14.653429	-29.749592	-9.137142	0.252358	19.223253	0.000000	3.953743	2.181594	-2.880075
0.210000	10.180738	2.589054	-178.791491	0.227075	0.850804	-1.205465	15.206972	-9.250523	-34.012463	-9.713534	-0.241706	13.231537	0.000000	15.852651	-14.652534	-29.749655	-9.137672	0.252511	19.223175	0.000000	3.953835	2.181673	-2.880320
0.215000	10.179852	2.586447	-178.787358	0.227045	0.850793	-1.205484	15.200371	-9.251303	-34.009123	-9.708392	-0.243968	13.234283	0.000000	15.853316	-14.651262	-29.751396	-9.140863	0.256211	19.220779	0.000000	3.960953	2.171260	-2.887549
0.220000	10.181307	2.588576	-178.782881	0.227043	0.850811	-1.205457	15.201287	-9.250271	-34.007653	-9.704736	-0.243073	13.235558	0.000000	15.856829	-14.650302	-29.750938	-9.136694	0.259196	19.220795	0.000000	3.957569	2.166699	-2.885762
0.225000	10.181241	2.567657	-178.777499	0.226995	0.850802	-1.205425	15.189193	-9.266412	-33.959404	-9.670369	-0.164208	13.240436	0.000000	15.850157	-14.622940	-29.739395	-9.128374	0.276968	19.219471	0.000000	3.964811	2.135774	-2.872936
0.230000	10.181304	2.567709	-178.777485	0.226993	0.850820	-1.205429	15.189172	-9.266473	-33.959425	-9.670375	-0.164196	13.240412	0.000000	15.850128	-14.622912	-29.739411	-9.128402	0.276974	19.219459	0.000000	3.964859	2.135787	-2.872941
0.235000	10.177793	2.572014	-178.778502	0.226987	0.850869	-1.205417	15.197765	-9.273568	-33.993041	-9.717548	-0.222646	13.222594	0.000000	15.846849	-14.627372	-29.743390	-9.135296	0.272392	19.214674	0.000000	3.961388	2.152257	-2.891336
0.240000	10.188711	2.553834	-178.771765	0.226945	0.850812	-1.205383	15.187736	-9.284264	-33.984168	-9.659119	-0.203222	13.226340	0.000000	15.856606	-14.605525	-29.749284	-9.141358	0.283454	19.210249	0.000000	3.983397	2.137328	-2.906138
0.245000	10.188888	2.554572	-178.772815	0.226938	0.850807	-1.205358	15.187678	-9.284104	-33.984195	-9.659402	-0.203074	13.226112	0.000000	15.856902	-14.604335	-29.749018	-9.141513	0.283394	19.210380	0.000000	3.983545	2.136914	-2.905739
0.250000	10.190428	2.576027	-178.792931	0.226873	0.850804	-1.205250	15.204170	-9.279350	-33.995752	-9.713600	-0.222849	13.224560	0.000000	15.845054	-14.620028	-29.743987	-9.134437	0.291517	19.205655	0.000000	3.977275	2.150710	-2.844249
0.255000	10.191052	2.578513	-178.793770	0.226844	0.850818	-1.205199	15.203890	-9.279799	-33.996079	-9.713470	-0.222656	13.224481	0.000000	15.844837	-14.619234	-29.744243	-9.134696	0.291501	19.205443	0.000000	3.977477	2.150040	-2.843786
0.260000	10.192377	2.578942	-178.788715	0.226850	0.850817	-1.205257	15.202402	-9.275835	-33.996031	-9.711480	-0.223031	13.225875	0.000000	15.848925	-14.622732	-29.745308	-9.133406	0.293891	19.204094	0.000000	3.977477	2.138947	-2.843597
0.265000	10.197464	2.549592	-178.749170	0.226852	0.850761	-1.205304	15.171367	-9.292222	-33.969101	-9.633665	-0.191893	13.240154	0.000000	15.879184	-14.595886	-29.732311	-9.166839	0.311291	19.212292	0.000000	3.986544	2.084396	-2.881585
0.270000	10.196360	2.534585	-178.735082	0.226878	0.850797	-1.205338	15.174921	-9.308315	-33.960634	-9.645045	-0.198209	13.232727	0.000000	15.884902	-14.580810	-29.727104	-9.171231	0.319052	19.221645	0.000000	3.985561	2.085115	-2.935377
0.275000	10.196314	2.534872	-178.744011	0.226826	0.850836	-1.205251	15.178283	-9.312229	-33.967133	-9.649678	-0.196911	13.226580	0.000000	15.880470	-14.576887	-29.725655	-9.175787	0.315588	19.222939	0.000000	3.988554	2.097565	-2.926746
